<svg width="209" height="74" viewBox="0 0 209 74" fill="none" xmlns="http://www.w3.org/2000/svg">
<path d="M86.22 30V9H88.74V27.99H98.52V30H86.22ZM103.182 30V9H105.702V30H103.182ZM111.354 30V9H124.134V11.07H113.874V18.45H122.604V20.49H113.874V30H111.354ZM133.5 30V11.07H127.23V9H142.29V11.07H136.02V30H133.5ZM146.567 30V9H153.347C154.987 9 156.327 9.27 157.367 9.81C158.407 10.35 159.177 11.09 159.677 12.03C160.177 12.97 160.427 14.01 160.427 15.15C160.427 16.47 160.067 17.66 159.347 18.72C158.647 19.78 157.547 20.53 156.047 20.97L160.637 30H157.667L153.407 21.33H153.227H149.087V30H146.567ZM149.087 19.35H153.167C154.787 19.35 155.967 18.96 156.707 18.18C157.447 17.4 157.817 16.4 157.817 15.18C157.817 13.94 157.447 12.96 156.707 12.24C155.987 11.5 154.797 11.13 153.137 11.13H149.087V19.35ZM175.09 30.36C173.03 30.36 171.22 29.91 169.66 29.01C168.12 28.09 166.91 26.81 166.03 25.17C165.17 23.53 164.74 21.64 164.74 19.5C164.74 17.36 165.17 15.48 166.03 13.86C166.91 12.22 168.12 10.94 169.66 10.02C171.22 9.1 173.03 8.64 175.09 8.64C177.17 8.64 178.98 9.1 180.52 10.02C182.08 10.94 183.29 12.22 184.15 13.86C185.01 15.48 185.44 17.36 185.44 19.5C185.44 21.64 185.01 23.53 184.15 25.17C183.29 26.81 182.08 28.09 180.52 29.01C178.98 29.91 177.17 30.36 175.09 30.36ZM175.09 28.14C176.63 28.14 177.98 27.8 179.14 27.12C180.32 26.42 181.23 25.43 181.87 24.15C182.53 22.85 182.86 21.3 182.86 19.5C182.86 17.7 182.53 16.16 181.87 14.88C181.23 13.6 180.32 12.62 179.14 11.94C177.98 11.24 176.63 10.89 175.09 10.89C173.55 10.89 172.19 11.24 171.01 11.94C169.85 12.62 168.94 13.6 168.28 14.88C167.64 16.16 167.32 17.7 167.32 19.5C167.32 21.3 167.64 22.85 168.28 24.15C168.94 25.43 169.85 26.42 171.01 27.12C172.19 27.8 173.55 28.14 175.09 28.14ZM190.275 30V9H192.795L203.985 25.83V9H206.505V30H203.985L192.795 13.17V30H190.275Z" fill="white"/>
<path d="M88.81 48.12C88.1233 48.12 87.53 47.97 87.03 47.67C86.5367 47.3633 86.1533 46.94 85.88 46.4C85.6067 45.8533 85.47 45.22 85.47 44.5C85.47 43.7867 85.6067 43.16 85.88 42.62C86.1533 42.0733 86.5367 41.6467 87.03 41.34C87.53 41.0333 88.1233 40.88 88.81 40.88C89.61 40.88 90.26 41.0733 90.76 41.46C91.2667 41.84 91.59 42.3733 91.73 43.06H90.8C90.6933 42.6267 90.4733 42.28 90.14 42.02C89.8133 41.7533 89.37 41.62 88.81 41.62C88.31 41.62 87.8733 41.7367 87.5 41.97C87.1267 42.1967 86.8367 42.5267 86.63 42.96C86.43 43.3867 86.33 43.9 86.33 44.5C86.33 45.1 86.43 45.6167 86.63 46.05C86.8367 46.4767 87.1267 46.8067 87.5 47.04C87.8733 47.2667 88.31 47.38 88.81 47.38C89.37 47.38 89.8133 47.2533 90.14 47C90.4733 46.74 90.6933 46.3967 90.8 45.97H91.73C91.59 46.6433 91.2667 47.17 90.76 47.55C90.26 47.93 89.61 48.12 88.81 48.12ZM98.1173 48.12C97.4306 48.12 96.8273 47.97 96.3073 47.67C95.7939 47.3633 95.3906 46.9367 95.0973 46.39C94.8106 45.8433 94.6673 45.2133 94.6673 44.5C94.6673 43.7867 94.8106 43.16 95.0973 42.62C95.3906 42.0733 95.7939 41.6467 96.3073 41.34C96.8273 41.0333 97.4306 40.88 98.1173 40.88C98.8106 40.88 99.4139 41.0333 99.9273 41.34C100.447 41.6467 100.851 42.0733 101.137 42.62C101.424 43.16 101.567 43.7867 101.567 44.5C101.567 45.2133 101.424 45.8433 101.137 46.39C100.851 46.9367 100.447 47.3633 99.9273 47.67C99.4139 47.97 98.8106 48.12 98.1173 48.12ZM98.1173 47.38C98.6306 47.38 99.0806 47.2667 99.4673 47.04C99.8606 46.8067 100.164 46.4767 100.377 46.05C100.597 45.6167 100.707 45.1 100.707 44.5C100.707 43.9 100.597 43.3867 100.377 42.96C100.164 42.5333 99.8606 42.2067 99.4673 41.98C99.0806 41.7467 98.6306 41.63 98.1173 41.63C97.6039 41.63 97.1506 41.7467 96.7573 41.98C96.3706 42.2067 96.0673 42.5333 95.8473 42.96C95.6339 43.3867 95.5273 43.9 95.5273 44.5C95.5273 45.1 95.6339 45.6167 95.8473 46.05C96.0673 46.4767 96.3706 46.8067 96.7573 47.04C97.1506 47.2667 97.6039 47.38 98.1173 47.38ZM104.779 48V41H105.759L108.279 45.88L110.779 41H111.769V48H110.929V42.5L108.589 47H107.959L105.619 42.51V48H104.779ZM115.246 48V41H117.546C118.093 41 118.543 41.09 118.896 41.27C119.249 41.45 119.509 41.6933 119.676 42C119.849 42.3067 119.936 42.6533 119.936 43.04C119.936 43.42 119.853 43.7633 119.686 44.07C119.519 44.3767 119.259 44.6233 118.906 44.81C118.553 44.99 118.099 45.08 117.546 45.08H116.086V48H115.246ZM116.086 44.37H117.526C118.086 44.37 118.483 44.2533 118.716 44.02C118.956 43.78 119.076 43.4533 119.076 43.04C119.076 42.62 118.956 42.2933 118.716 42.06C118.483 41.82 118.086 41.7 117.526 41.7H116.086V44.37ZM121.718 48L124.298 41H125.188L127.758 48H126.868L126.228 46.2H123.248L122.598 48H121.718ZM123.498 45.52H125.978L124.738 42.06L123.498 45.52ZM130.799 48V41H131.639L135.369 46.61V41H136.209V48H135.369L131.639 42.39V48H130.799ZM141.433 48V45.34L139.153 41H140.103L141.853 44.54L143.603 41H144.543L142.273 45.34V48H141.433Z" fill="#0AA5FF"/>
<path d="M37 70C55.2254 70 70 55.2254 70 37C70 18.7746 55.2254 4 37 4M37 70C18.7746 70 4 55.2254 4 37C4 18.7746 18.7746 4 37 4M37 70C45.3738 70 52.1622 55.2254 52.1622 37C52.1622 18.7746 45.3738 4 37 4M37 70C28.6262 70 21.8378 55.2254 21.8378 37C21.8378 18.7746 28.6262 4 37 4M4.00295 37.4459H37H69.997" stroke="url(#paint0_linear_3_2)" stroke-width="7"/>
<defs>
<linearGradient id="paint0_linear_3_2" x1="37" y1="4" x2="37" y2="70" gradientUnits="userSpaceOnUse">
<stop stop-color="#19C1FF"/>
<stop offset="1" stop-color="#4044FF"/>
</linearGradient>
</defs>
</svg>
